<mxfile host="app.diagrams.net" agent="Mozilla/5.0 (Windows NT 10.0; Win64; x64; rv:139.0) Gecko/20100101 Firefox/139.0" version="27.0.9">
  <diagram name="Pagina-1" id="wTjVvahfw1JR5ZzRI9wP">
    <mxGraphModel dx="1473" dy="815" grid="1" gridSize="10" guides="1" tooltips="1" connect="1" arrows="1" fold="1" page="1" pageScale="1" pageWidth="827" pageHeight="1169" background="light-dark(#171717,#171717)" math="0" shadow="0">
      <root>
        <mxCell id="0" />
        <mxCell id="1" parent="0" />
        <mxCell id="S_WICMJVGBlt52VM9bT--1" value="" style="shape=cube;whiteSpace=wrap;html=1;boundedLbl=1;backgroundOutline=1;darkOpacity=0.05;darkOpacity2=0.1;fillColor=#cce5ff;strokeColor=#36393d;" vertex="1" parent="1">
          <mxGeometry x="730" y="81.25" width="30" height="200" as="geometry" />
        </mxCell>
        <mxCell id="S_WICMJVGBlt52VM9bT--2" value="" style="shape=cube;whiteSpace=wrap;html=1;boundedLbl=1;backgroundOutline=1;darkOpacity=0.05;darkOpacity2=0.1;fillColor=light-dark(#FAD9D5,#79423F);strokeColor=#ae4132;" vertex="1" parent="1">
          <mxGeometry x="100" y="95" width="30" height="155" as="geometry" />
        </mxCell>
        <mxCell id="S_WICMJVGBlt52VM9bT--4" value="" style="shape=cube;whiteSpace=wrap;html=1;boundedLbl=1;backgroundOutline=1;darkOpacity=0.05;darkOpacity2=0.1;fillColor=light-dark(#FAD9D5,#79423F);strokeColor=#ae4132;" vertex="1" parent="1">
          <mxGeometry x="80" y="95" width="30" height="155" as="geometry" />
        </mxCell>
        <mxCell id="S_WICMJVGBlt52VM9bT--5" value="" style="shape=cube;whiteSpace=wrap;html=1;boundedLbl=1;backgroundOutline=1;darkOpacity=0.05;darkOpacity2=0.1;fillColor=light-dark(#FAD9D5,#AE5C59);strokeColor=#ae4132;" vertex="1" parent="1">
          <mxGeometry x="200" y="120" width="30" height="110" as="geometry" />
        </mxCell>
        <mxCell id="S_WICMJVGBlt52VM9bT--6" value="" style="shape=cube;whiteSpace=wrap;html=1;boundedLbl=1;backgroundOutline=1;darkOpacity=0.05;darkOpacity2=0.1;fillColor=light-dark(#FAD9D5,#AE5C59);strokeColor=#ae4132;" vertex="1" parent="1">
          <mxGeometry x="180" y="120" width="30" height="110" as="geometry" />
        </mxCell>
        <mxCell id="S_WICMJVGBlt52VM9bT--7" value="" style="shape=cube;whiteSpace=wrap;html=1;boundedLbl=1;backgroundOutline=1;darkOpacity=0.05;darkOpacity2=0.1;fillColor=light-dark(#FAD9D5,#AE5C59);strokeColor=#ae4132;" vertex="1" parent="1">
          <mxGeometry x="160" y="120" width="30" height="110" as="geometry" />
        </mxCell>
        <mxCell id="S_WICMJVGBlt52VM9bT--8" value="" style="shape=cube;whiteSpace=wrap;html=1;boundedLbl=1;backgroundOutline=1;darkOpacity=0.05;darkOpacity2=0.1;fillColor=light-dark(#FAD9D5,#AE5C59);strokeColor=#ae4132;" vertex="1" parent="1">
          <mxGeometry x="140" y="120" width="30" height="110" as="geometry" />
        </mxCell>
        <mxCell id="S_WICMJVGBlt52VM9bT--9" value="" style="shape=cube;whiteSpace=wrap;html=1;boundedLbl=1;backgroundOutline=1;darkOpacity=0.05;darkOpacity2=0.1;fillColor=light-dark(#FAD9D5,#E97B77);strokeColor=#ae4132;" vertex="1" parent="1">
          <mxGeometry x="300" y="140" width="30" height="82.5" as="geometry" />
        </mxCell>
        <mxCell id="S_WICMJVGBlt52VM9bT--10" value="" style="shape=cube;whiteSpace=wrap;html=1;boundedLbl=1;backgroundOutline=1;darkOpacity=0.05;darkOpacity2=0.1;fillColor=light-dark(#FAD9D5,#E97B77);strokeColor=#ae4132;" vertex="1" parent="1">
          <mxGeometry x="280" y="140" width="30" height="82.5" as="geometry" />
        </mxCell>
        <mxCell id="S_WICMJVGBlt52VM9bT--11" value="" style="shape=cube;whiteSpace=wrap;html=1;boundedLbl=1;backgroundOutline=1;darkOpacity=0.05;darkOpacity2=0.1;fillColor=light-dark(#FAD9D5,#E97B77);strokeColor=#ae4132;" vertex="1" parent="1">
          <mxGeometry x="260" y="140" width="30" height="82.5" as="geometry" />
        </mxCell>
        <mxCell id="S_WICMJVGBlt52VM9bT--12" value="" style="shape=cube;whiteSpace=wrap;html=1;boundedLbl=1;backgroundOutline=1;darkOpacity=0.05;darkOpacity2=0.1;fillColor=light-dark(#FAD9D5,#E97B77);strokeColor=#ae4132;" vertex="1" parent="1">
          <mxGeometry x="240" y="140" width="30" height="82.5" as="geometry" />
        </mxCell>
        <mxCell id="S_WICMJVGBlt52VM9bT--13" value="" style="ellipse;whiteSpace=wrap;html=1;strokeColor=light-dark(#000000,#B8625F);fillColor=light-dark(#FFFFFF,#FF8682);" vertex="1" parent="1">
          <mxGeometry x="350" y="120" width="20" height="20" as="geometry" />
        </mxCell>
        <mxCell id="S_WICMJVGBlt52VM9bT--14" value="" style="ellipse;whiteSpace=wrap;html=1;strokeColor=light-dark(#000000,#B8625F);fillColor=light-dark(#FFFFFF,#FF8682);" vertex="1" parent="1">
          <mxGeometry x="350" y="150" width="20" height="20" as="geometry" />
        </mxCell>
        <mxCell id="S_WICMJVGBlt52VM9bT--15" value="" style="ellipse;whiteSpace=wrap;html=1;strokeColor=light-dark(#000000,#B8625F);fillColor=light-dark(#FFFFFF,#FF8682);" vertex="1" parent="1">
          <mxGeometry x="350" y="220" width="20" height="20" as="geometry" />
        </mxCell>
        <mxCell id="S_WICMJVGBlt52VM9bT--16" value="" style="ellipse;whiteSpace=wrap;html=1;strokeColor=light-dark(#000000,#B8625F);fillColor=light-dark(#FFFFFF,#FF8682);" vertex="1" parent="1">
          <mxGeometry x="350" y="250" width="20" height="20" as="geometry" />
        </mxCell>
        <mxCell id="S_WICMJVGBlt52VM9bT--19" value="" style="ellipse;whiteSpace=wrap;html=1;strokeColor=light-dark(#000000,#6F6F6F);fillColor=light-dark(#FFFFFF,#FFFFFF);" vertex="1" parent="1">
          <mxGeometry x="390" y="150" width="20" height="20" as="geometry" />
        </mxCell>
        <mxCell id="S_WICMJVGBlt52VM9bT--20" value="" style="ellipse;whiteSpace=wrap;html=1;strokeColor=light-dark(#000000,#818181);fillColor=light-dark(#FFFFFF,#FFFFFF);" vertex="1" parent="1">
          <mxGeometry x="390" y="220" width="20" height="20" as="geometry" />
        </mxCell>
        <mxCell id="S_WICMJVGBlt52VM9bT--23" value="" style="endArrow=none;dashed=1;html=1;dashPattern=1 3;strokeWidth=3;rounded=0;strokeColor=light-dark(#000000,#FF9999);" edge="1" parent="1">
          <mxGeometry width="50" height="50" relative="1" as="geometry">
            <mxPoint x="360" y="210" as="sourcePoint" />
            <mxPoint x="360" y="180" as="targetPoint" />
          </mxGeometry>
        </mxCell>
        <mxCell id="S_WICMJVGBlt52VM9bT--24" value="" style="endArrow=none;dashed=1;html=1;dashPattern=1 3;strokeWidth=3;rounded=0;strokeColor=light-dark(#000000,#FFFFFF);" edge="1" parent="1">
          <mxGeometry width="50" height="50" relative="1" as="geometry">
            <mxPoint x="399.92" y="210" as="sourcePoint" />
            <mxPoint x="399.92" y="180" as="targetPoint" />
          </mxGeometry>
        </mxCell>
        <mxCell id="S_WICMJVGBlt52VM9bT--25" value="" style="ellipse;whiteSpace=wrap;html=1;strokeColor=light-dark(#000000,#BABDC0);fillColor=light-dark(#FFFFFF,#59ADFF);" vertex="1" parent="1">
          <mxGeometry x="430" y="120" width="20" height="20" as="geometry" />
        </mxCell>
        <mxCell id="S_WICMJVGBlt52VM9bT--26" value="" style="ellipse;whiteSpace=wrap;html=1;strokeColor=light-dark(#000000,#BABDC0);fillColor=light-dark(#FFFFFF,#59ADFF);" vertex="1" parent="1">
          <mxGeometry x="430" y="150" width="20" height="20" as="geometry" />
        </mxCell>
        <mxCell id="S_WICMJVGBlt52VM9bT--27" value="" style="ellipse;whiteSpace=wrap;html=1;strokeColor=light-dark(#000000,#BABDC0);fillColor=light-dark(#FFFFFF,#59ADFF);" vertex="1" parent="1">
          <mxGeometry x="430" y="220" width="20" height="20" as="geometry" />
        </mxCell>
        <mxCell id="S_WICMJVGBlt52VM9bT--28" value="" style="ellipse;whiteSpace=wrap;html=1;strokeColor=light-dark(#000000,#BABDC0);fillColor=light-dark(#FFFFFF,#59ADFF);" vertex="1" parent="1">
          <mxGeometry x="430" y="250" width="20" height="20" as="geometry" />
        </mxCell>
        <mxCell id="S_WICMJVGBlt52VM9bT--29" value="" style="endArrow=none;dashed=1;html=1;dashPattern=1 3;strokeWidth=3;rounded=0;strokeColor=light-dark(#000000,#59ADFF);" edge="1" parent="1">
          <mxGeometry width="50" height="50" relative="1" as="geometry">
            <mxPoint x="440" y="210" as="sourcePoint" />
            <mxPoint x="440" y="180" as="targetPoint" />
          </mxGeometry>
        </mxCell>
        <mxCell id="S_WICMJVGBlt52VM9bT--30" value="" style="shape=cube;whiteSpace=wrap;html=1;boundedLbl=1;backgroundOutline=1;darkOpacity=0.05;darkOpacity2=0.1;fillColor=light-dark(#CCE5FF,#4C93D9);strokeColor=#36393d;" vertex="1" parent="1">
          <mxGeometry x="530" y="140" width="30" height="82.5" as="geometry" />
        </mxCell>
        <mxCell id="S_WICMJVGBlt52VM9bT--31" value="" style="shape=cube;whiteSpace=wrap;html=1;boundedLbl=1;backgroundOutline=1;darkOpacity=0.05;darkOpacity2=0.1;fillColor=light-dark(#CCE5FF,#4C93D9);strokeColor=#36393d;" vertex="1" parent="1">
          <mxGeometry x="510" y="140" width="30" height="82.5" as="geometry" />
        </mxCell>
        <mxCell id="S_WICMJVGBlt52VM9bT--32" value="" style="shape=cube;whiteSpace=wrap;html=1;boundedLbl=1;backgroundOutline=1;darkOpacity=0.05;darkOpacity2=0.1;fillColor=light-dark(#CCE5FF,#4C93D9);strokeColor=#36393d;" vertex="1" parent="1">
          <mxGeometry x="490" y="140" width="30" height="82.5" as="geometry" />
        </mxCell>
        <mxCell id="S_WICMJVGBlt52VM9bT--33" value="" style="shape=cube;whiteSpace=wrap;html=1;boundedLbl=1;backgroundOutline=1;darkOpacity=0.05;darkOpacity2=0.1;fillColor=light-dark(#CCE5FF,#4C93D9);strokeColor=#36393D;" vertex="1" parent="1">
          <mxGeometry x="470" y="140" width="30" height="82.5" as="geometry" />
        </mxCell>
        <mxCell id="S_WICMJVGBlt52VM9bT--34" value="" style="shape=cube;whiteSpace=wrap;html=1;boundedLbl=1;backgroundOutline=1;darkOpacity=0.05;darkOpacity2=0.1;fillColor=light-dark(#CCE5FF,#386EA2);strokeColor=#36393d;" vertex="1" parent="1">
          <mxGeometry x="630" y="126.25" width="30" height="110" as="geometry" />
        </mxCell>
        <mxCell id="S_WICMJVGBlt52VM9bT--35" value="" style="shape=cube;whiteSpace=wrap;html=1;boundedLbl=1;backgroundOutline=1;darkOpacity=0.05;darkOpacity2=0.1;fillColor=light-dark(#CCE5FF,#386EA2);strokeColor=#36393d;" vertex="1" parent="1">
          <mxGeometry x="610" y="126.25" width="30" height="110" as="geometry" />
        </mxCell>
        <mxCell id="S_WICMJVGBlt52VM9bT--36" value="" style="shape=cube;whiteSpace=wrap;html=1;boundedLbl=1;backgroundOutline=1;darkOpacity=0.05;darkOpacity2=0.1;fillColor=light-dark(#CCE5FF,#386EA2);strokeColor=#36393d;" vertex="1" parent="1">
          <mxGeometry x="590" y="126.25" width="30" height="110" as="geometry" />
        </mxCell>
        <mxCell id="S_WICMJVGBlt52VM9bT--37" value="" style="shape=cube;whiteSpace=wrap;html=1;boundedLbl=1;backgroundOutline=1;darkOpacity=0.05;darkOpacity2=0.1;fillColor=light-dark(#CCE5FF,#386EA2);strokeColor=#36393d;" vertex="1" parent="1">
          <mxGeometry x="570" y="126.25" width="30" height="110" as="geometry" />
        </mxCell>
        <mxCell id="S_WICMJVGBlt52VM9bT--38" value="" style="shape=cube;whiteSpace=wrap;html=1;boundedLbl=1;backgroundOutline=1;darkOpacity=0.05;darkOpacity2=0.1;fillColor=light-dark(#CCE5FF,#29496B);strokeColor=#36393d;" vertex="1" parent="1">
          <mxGeometry x="690" y="103.75" width="30" height="155" as="geometry" />
        </mxCell>
        <mxCell id="S_WICMJVGBlt52VM9bT--39" value="" style="shape=cube;whiteSpace=wrap;html=1;boundedLbl=1;backgroundOutline=1;darkOpacity=0.05;darkOpacity2=0.1;fillColor=light-dark(#CCE5FF,#284F75);strokeColor=#36393d;" vertex="1" parent="1">
          <mxGeometry x="670" y="103.75" width="30" height="155" as="geometry" />
        </mxCell>
        <mxCell id="S_WICMJVGBlt52VM9bT--40" value="" style="shape=cube;whiteSpace=wrap;html=1;boundedLbl=1;backgroundOutline=1;darkOpacity=0.05;darkOpacity2=0.1;fillColor=#fad9d5;strokeColor=#ae4132;" vertex="1" parent="1">
          <mxGeometry x="40" y="70" width="30" height="200" as="geometry" />
        </mxCell>
        <mxCell id="S_WICMJVGBlt52VM9bT--41" value="&lt;div&gt;Input (1, 100, 100)&lt;/div&gt;" style="text;html=1;align=center;verticalAlign=middle;resizable=0;points=[];autosize=1;strokeColor=none;fillColor=none;rotation=90;" vertex="1" parent="1">
          <mxGeometry x="-5" y="320" width="120" height="30" as="geometry" />
        </mxCell>
        <mxCell id="S_WICMJVGBlt52VM9bT--42" value="&lt;div&gt;Conv1 (16, 50, 50)&lt;/div&gt;" style="text;html=1;align=center;verticalAlign=middle;resizable=0;points=[];autosize=1;strokeColor=none;fillColor=none;rotation=90;" vertex="1" parent="1">
          <mxGeometry x="50" y="310" width="120" height="30" as="geometry" />
        </mxCell>
        <mxCell id="S_WICMJVGBlt52VM9bT--43" value="&lt;div&gt;Conv2 (32, 25, 25)&lt;/div&gt;" style="text;html=1;align=center;verticalAlign=middle;resizable=0;points=[];autosize=1;strokeColor=none;fillColor=none;rotation=90;" vertex="1" parent="1">
          <mxGeometry x="130" y="281.25" width="120" height="30" as="geometry" />
        </mxCell>
        <mxCell id="S_WICMJVGBlt52VM9bT--44" value="&lt;div&gt;Conv3 (64, 12, 12)&lt;/div&gt;" style="text;html=1;align=center;verticalAlign=middle;resizable=0;points=[];autosize=1;strokeColor=none;fillColor=none;rotation=90;" vertex="1" parent="1">
          <mxGeometry x="230" y="280" width="120" height="30" as="geometry" />
        </mxCell>
        <mxCell id="S_WICMJVGBlt52VM9bT--45" value="&lt;div&gt;TConv1 (64, 12, 12)&lt;/div&gt;" style="text;html=1;align=center;verticalAlign=middle;resizable=0;points=[];autosize=1;strokeColor=none;fillColor=none;rotation=90;" vertex="1" parent="1">
          <mxGeometry x="450" y="290" width="130" height="30" as="geometry" />
        </mxCell>
        <mxCell id="S_WICMJVGBlt52VM9bT--46" value="&lt;div&gt;TConv2 (32, 25, 25)&lt;/div&gt;" style="text;html=1;align=center;verticalAlign=middle;resizable=0;points=[];autosize=1;strokeColor=none;fillColor=none;rotation=90;" vertex="1" parent="1">
          <mxGeometry x="550" y="290" width="130" height="30" as="geometry" />
        </mxCell>
        <mxCell id="S_WICMJVGBlt52VM9bT--47" value="&lt;div&gt;TConv3 (16, 50, 50)&lt;/div&gt;" style="text;html=1;align=center;verticalAlign=middle;resizable=0;points=[];autosize=1;strokeColor=none;fillColor=none;rotation=90;" vertex="1" parent="1">
          <mxGeometry x="640" y="320" width="130" height="30" as="geometry" />
        </mxCell>
        <mxCell id="S_WICMJVGBlt52VM9bT--48" value="&lt;div&gt;Output (1, 100, 100)&lt;/div&gt;" style="text;html=1;align=center;verticalAlign=middle;resizable=0;points=[];autosize=1;strokeColor=none;fillColor=none;rotation=90;" vertex="1" parent="1">
          <mxGeometry x="685" y="340" width="130" height="30" as="geometry" />
        </mxCell>
        <mxCell id="S_WICMJVGBlt52VM9bT--49" value="Flatten In (9216)" style="text;html=1;align=center;verticalAlign=middle;resizable=0;points=[];autosize=1;strokeColor=none;fillColor=none;rotation=90;" vertex="1" parent="1">
          <mxGeometry x="305" y="320" width="110" height="30" as="geometry" />
        </mxCell>
        <mxCell id="S_WICMJVGBlt52VM9bT--50" value="Flatten Out (9216)" style="text;html=1;align=center;verticalAlign=middle;resizable=0;points=[];autosize=1;strokeColor=none;fillColor=none;rotation=90;" vertex="1" parent="1">
          <mxGeometry x="380" y="330" width="120" height="30" as="geometry" />
        </mxCell>
        <mxCell id="S_WICMJVGBlt52VM9bT--51" value="Latent Space (3 or 32)" style="text;html=1;align=center;verticalAlign=middle;resizable=0;points=[];autosize=1;strokeColor=none;fillColor=none;rotation=90;" vertex="1" parent="1">
          <mxGeometry x="330" y="300" width="140" height="30" as="geometry" />
        </mxCell>
        <mxCell id="S_WICMJVGBlt52VM9bT--52" value="" style="endArrow=classic;startArrow=classic;html=1;rounded=0;" edge="1" parent="1">
          <mxGeometry width="50" height="50" relative="1" as="geometry">
            <mxPoint x="40" y="40" as="sourcePoint" />
            <mxPoint x="320" y="100" as="targetPoint" />
          </mxGeometry>
        </mxCell>
        <mxCell id="S_WICMJVGBlt52VM9bT--53" value="Encoder" style="text;html=1;align=center;verticalAlign=middle;resizable=0;points=[];autosize=1;strokeColor=none;fillColor=none;rotation=12;" vertex="1" parent="1">
          <mxGeometry x="140" y="30" width="70" height="30" as="geometry" />
        </mxCell>
        <mxCell id="S_WICMJVGBlt52VM9bT--54" value="" style="endArrow=classic;startArrow=classic;html=1;rounded=0;" edge="1" parent="1">
          <mxGeometry width="50" height="50" relative="1" as="geometry">
            <mxPoint x="470" y="100" as="sourcePoint" />
            <mxPoint x="760" y="50" as="targetPoint" />
          </mxGeometry>
        </mxCell>
        <mxCell id="S_WICMJVGBlt52VM9bT--55" value="Decoder" style="text;html=1;align=center;verticalAlign=middle;resizable=0;points=[];autosize=1;strokeColor=none;fillColor=none;rotation=-10;" vertex="1" parent="1">
          <mxGeometry x="580" y="39.99912318962866" width="70" height="30" as="geometry" />
        </mxCell>
      </root>
    </mxGraphModel>
  </diagram>
</mxfile>
